<svg xmlns="http://www.w3.org/2000/svg" version="1.1" xmlns:xlink="http://www.w3.org/1999/xlink" width="500" height="500"><svg xmlns="http://www.w3.org/2000/svg" version="1.1" preserveAspectRatio="none" width="500" height="500" viewBox="0 0 500 500"><rect width="100%" height="100%" fill="#012B28" fill-opacity="1"></rect><svg xmlns="http://www.w3.org/2000/svg" xmlns:xlink="http://www.w3.org/1999/xlink" viewBox="895 434.6277 380 205.5779" width="417" height="225.59469552631577" x="41.5px" y="137.2027px" preserveAspectRatio="none"><defs></defs><style>.companyNamed6dee88e-af94-4037-ba9e-332a757f62cc {fill:#EBB42C;fill-opacity:1;}.icon3-strd6dee88e-af94-4037-ba9e-332a757f62cc {stroke:#B47049;stroke-opacity:1;}</style><g opacity="1" transform="rotate(0 895 434.6277)">
<svg width="380" height="205.5779" x="895" y="434.6277" version="1.1" preserveAspectRatio="none" viewBox="0.6641 -10.0977 19.2773 10.4297">
  <g transform="matrix(1 0 0 1 0 0)" class="companyNamed6dee88e-af94-4037-ba9e-332a757f62cc"><path id="SvgjsPath1001" d="M5.08-1.76L5.08-1.76Q5.39-2.40 5.80-3.17Q6.21-3.95 6.68-4.74Q7.15-5.53 7.67-6.31Q8.18-7.09 8.75-7.79L8.75-7.79Q9.32-8.48 9.89-8.78Q10.47-9.08 10.98-9.08L10.98-9.08Q11.99-9.08 12.48-8.34Q12.97-7.60 12.97-6.50L12.97-6.50Q12.97-6.25 12.94-5.89Q12.91-5.53 12.88-5.12Q12.85-4.71 12.82-4.29Q12.79-3.87 12.79-3.50L12.79-3.50Q12.79-3.03 12.84-2.60Q12.89-2.17 13.03-1.85Q13.16-1.52 13.42-1.34Q13.67-1.15 14.08-1.15L14.08-1.15Q14.82-1.15 15.53-1.73Q16.23-2.30 16.83-3.10Q17.42-3.89 17.86-4.71Q18.30-5.53 18.52-6.04L18.52-6.04Q18.61-6.25 18.80-6.37Q18.98-6.48 19.20-6.48L19.20-6.48Q19.53-6.48 19.74-6.24Q19.94-6.00 19.94-5.72L19.94-5.72Q19.94-5.59 19.88-5.45L19.88-5.45Q19.80-5.29 19.57-4.80Q19.34-4.32 18.96-3.68Q18.57-3.05 18.07-2.33Q17.56-1.62 16.94-1.04Q16.33-0.45 15.62-0.06Q14.90 0.33 14.12 0.33L14.12 0.33Q13.24 0.33 12.70-0.01Q12.15-0.35 11.84-0.91Q11.52-1.46 11.42-2.14Q11.31-2.81 11.31-3.50L11.31-3.50Q11.31-3.79 11.34-4.16Q11.37-4.53 11.42-4.94Q11.46-5.35 11.49-5.76Q11.52-6.17 11.52-6.54L11.52-6.54Q11.52-7.17 11.33-7.39Q11.13-7.62 10.98-7.62L10.98-7.62Q10.66-7.62 10.26-7.26Q9.86-6.89 9.42-6.31Q8.98-5.72 8.53-4.99Q8.07-4.26 7.67-3.54Q7.27-2.81 6.92-2.16Q6.58-1.50 6.39-1.07L6.39-1.07Q6.00-0.25 5.61 0.03Q5.21 0.31 4.80 0.31L4.80 0.31Q4.24 0.31 3.90-0.03Q3.55-0.37 3.55-1.00L3.55-1.00Q3.55-1.13 3.59-1.53Q3.63-1.93 3.69-2.49Q3.75-3.05 3.81-3.69Q3.87-4.34 3.93-4.97Q3.98-5.61 4.02-6.15Q4.06-6.70 4.06-7.07L4.06-7.07Q4.06-7.56 4.02-8.01Q3.98-8.46 3.87-8.55L3.87-8.55Q3.69-8.50 3.24-7.82Q2.79-7.15 2.09-5.45L2.09-5.45Q1.99-5.23 1.80-5.12Q1.60-5 1.39-5L1.39-5Q1.05-5 0.86-5.22Q0.66-5.45 0.66-5.74L0.66-5.74Q0.66-5.88 0.72-6.04L0.72-6.04Q1.60-8.13 2.37-9.11Q3.14-10.10 3.91-10.10L3.91-10.10Q4.36-10.10 4.67-9.87Q4.98-9.65 5.17-9.28Q5.35-8.91 5.44-8.46Q5.53-8.01 5.53-7.54L5.53-7.54Q5.53-7.19 5.48-6.45Q5.43-5.70 5.35-4.85Q5.27-4.00 5.21-3.16Q5.14-2.32 5.08-1.76Z"></path></g>
</svg>
</g></svg></svg><style>@media (prefers-color-scheme: light) { :root { filter: none; } }
@media (prefers-color-scheme: dark) { :root { filter: none; } }
</style></svg>